
<svg xmlns="http://www.w3.org/2000/svg" xmlns:xlink="http://www.w3.org/1999/xlink"
style="isolation: isolate" viewBox="0 0 600 200" width="600px" height="200px">
<style>
/* Dark theme by default */
:root {
  --background: none;
  --stat-color: #c9d1d9;
  --label-color: #c9d1d9;
  --date-color: #006AFF;
  --divider-color: #006AFF;
  --ring-color: #006AFF;
  --fire-color: #006AFF;
  --footer-color: #c9d1d9;
}

@media (prefers-color-scheme: light) {
  :root {
    --background: none;
    --stat-color: #000000;
    --label-color: #000000;
    --date-color: #006AFF;
    --divider-color: #006AFF;
    --ring-color: #006AFF;
    --fire-color: #006AFF;
    --footer-color: #000000;
  }
}

@keyframes fadein {
  0% { opacity: 0; }
  100% { opacity: 1; }
}

@keyframes currstreak {
  0% { font-size: 3px; opacity: 0.2; }
  80% { font-size: 34px; opacity: 1; }
  100% { font-size: 28px; opacity: 1; }
}

.stat {
  font: bold 28px sans-serif;
  fill: var(--stat-color);
}

.label {
  font: bold 14px sans-serif;
  fill: var(--label-color);
}

.date {
  font: 12px sans-serif;
  fill: var(--date-color);
}

.divider {
  stroke: var(--divider-color);
  stroke-width: 1;
}

.footer {
  font: 10px sans-serif;
  font-weight: 100;
  fill: var(--footer-color);
}

.background {
  fill: var(--background);
  stroke: rgb(225, 228, 232);
  stroke-width: 0.7px;
}

.ring {
  stroke: var(--ring-color);
}

.fire {
  fill: var(--fire-color);
}
</style>

<!-- Background -->
<rect width="100%" height="100%" class="background" rx="15" />

<!-- Divider Lines -->
<line x1="200" y1="25" x2="200" y2="175" class="divider" />
<line x1="400" y1="25" x2="400" y2="175" class="divider" />

<!-- Section 1: Total Contributions -->
<g transform="translate(100, 70)">
  <text class="stat" y="15" text-anchor="middle" style="opacity: 0; animation: fadein 0.5s linear forwards 0.6s">
    1929
  </text>
  <text class="label" y="55" text-anchor="middle" style="opacity: 0; animation: fadein 0.5s linear forwards 0.7s">
    Total Contributions
  </text>
  <text class="date" y="85" text-anchor="middle" style="opacity: 0; animation: fadein 0.5s linear forwards 0.8s">
    Jul 26, 2021 - Feb 22, 2025
  </text>
</g>

<!-- Section 2: Current Streak -->
<g style="isolation: isolate" transform="translate(300, 70)">
  <g mask="url(#ringMask)">
    <circle cx="0" cy="0" r="40" fill="none" class="ring" stroke-width="8"
           style="opacity: 0; animation: fadein 0.5s linear forwards 0.4s"/>
  </g>
  <defs>
    <mask id="ringMask">
      <rect x="-50" y="-40" width="100" height="100" fill="white" />
      <circle cx="0" cy="0" r="40" fill="black" />
      <ellipse cx="0" cy="-40" rx="20" ry="15" />
    </mask>
  </defs>

  <text class="stat" y="10" text-anchor="middle" 
        style="opacity: 0; animation: currstreak 0.6s linear forwards 0s">
    5
  </text>

  <text class="label" y="70" text-anchor="middle" style="opacity: 0; animation: fadein 0.5s linear forwards 0.9s">
    Current Streak
  </text>

  <text class="date" y="95" text-anchor="middle" style="opacity: 0; animation: fadein 0.5s linear forwards 1.0s">
    Feb 18, 2025 - Feb 22, 2025
  </text>

  <!-- Fire icon -->
<g transform="translate(0, -60)" stroke-opacity="0"
style="opacity: 0; animation: fadein 0.5s linear forwards 0.6s">
<path d="M -12 -0.5 L 15 -0.5 L 15 23.5 L -12 23.5 L -12 -0.5 Z" fill="none"/>
<path class="fire" d="M 1.5 0.67 C 1.5 0.67 2.24 3.32 2.24 5.47 C 2.24 7.53 0.89 9.2 -1.17 9.2
C -3.23 9.2 -4.79 7.53 -4.79 5.47 L -4.76 5.11
C -6.78 7.51 -8 10.62 -8 13.99 C -8 18.41 -4.42 22 0 22
C 4.42 22 8 18.41 8 13.99
C 8 8.6 5.41 3.79 1.5 0.67 Z
M -0.29 19 C -2.07 19 -3.51 17.6 -3.51 15.86
C -3.51 14.24 -2.46 13.1 -0.7 12.74
C 1.07 12.38 2.9 11.53 3.92 10.16
C 4.31 11.45 4.51 12.81 4.51 14.2
C 4.51 16.85 2.36 19 -0.29 19 Z"
 stroke-opacity="0"/>
</g>
</g>

<!-- Section 3: Longest Streak -->
<g transform="translate(500, 70)">
  <text class="stat" y="15" text-anchor="middle" style="opacity: 0; animation: fadein 0.5s linear forwards 1.2s">
    8
  </text>
  <text class="label" y="55" text-anchor="middle" style="opacity: 0; animation: fadein 0.5s linear forwards 1.3s">
    Longest Streak
  </text>
  <text class="date" y="85" text-anchor="middle" style="opacity: 0; animation: fadein 0.5s linear forwards 1.4s">
    Jul 26, 2024 - Aug 2, 2024
  </text>
</g>

<!-- Footer -->
<g transform="translate(300, 185)">
  <text class="footer" x="0" y="5" text-anchor="middle" style="opacity: 0; animation: fadein 0.5s linear forwards 1.6s">
    Updated last at: Feb 22 2025, 19:48
  </text>
</g>
</svg>
